<?xml version="1.0" standalone="no"?>
<!DOCTYPE svg PUBLIC "-//W3C//DTD SVG 20010904//EN"
 "http://www.w3.org/TR/2001/REC-SVG-20010904/DTD/svg10.dtd">
<svg version="1.0" xmlns="http://www.w3.org/2000/svg"
 width="260.000000pt" height="260.000000pt" viewBox="0 0 260.000000 260.000000"
 preserveAspectRatio="xMidYMid meet">
<metadata>
Created by potrace 1.14, written by Peter Selinger 2001-2017
</metadata>
<g transform="translate(0.000000,260.000000) scale(0.100000,-0.100000)"
fill="#000000" stroke="none">
<path d="M1323 2489 c-133 -45 -230 -159 -252 -296 -5 -32 -7 -69 -5 -83 2
-14 7 -41 10 -60 9 -54 62 -146 111 -191 25 -22 70 -53 101 -67 49 -23 70 -27
152 -27 82 0 103 4 152 27 145 68 231 209 222 365 -5 74 -24 129 -64 187 -95
140 -270 199 -427 145z"/>
<path d="M1 1964 c1 -256 5 -374 16 -444 40 -249 160 -485 338 -665 96 -97
120 -117 205 -172 187 -121 377 -184 597 -199 l83 -5 -4 378 c-3 406 -6 436
-63 608 -154 472 -587 808 -1086 842 l-88 6 2 -349z"/>
<path d="M2537 1914 c-1 -1 -31 -4 -67 -7 -36 -3 -76 -8 -90 -11 -14 -3 -38
-8 -55 -12 -64 -12 -194 -58 -270 -96 -218 -108 -402 -280 -527 -493 -65 -110
-112 -236 -144 -385 -15 -73 -18 -139 -18 -455 l-1 -370 68 2 c38 1 107 9 154
18 441 83 806 399 947 820 57 169 61 209 61 615 l0 375 -28 0 c-15 1 -29 0
-30 -1z"/>
</g>
</svg>
