<svg width="3029" height="462" viewBox="0 0 3029 462" fill="none" xmlns="http://www.w3.org/2000/svg">
<path d="M279.328 57.7996C279.328 89.7218 253.45 115.599 221.528 115.599C189.606 115.599 163.728 89.7218 163.728 57.7996C163.728 25.878 189.606 0 221.528 0C253.45 0 279.328 25.878 279.328 57.7996Z" fill="white"/>
<path d="M190.372 312.211C85.2328 312.211 0 226.979 0 121.839V30.4607C105.14 30.4607 190.377 115.693 190.377 220.833L190.372 312.211Z" fill="white"/>
<path d="M399.785 91.3792C294.645 91.3792 209.413 176.611 209.413 281.751V373.13C314.552 373.13 399.785 287.897 399.785 182.758V91.3792Z" fill="white"/>
<path d="M741.527 383.299C698.061 383.299 664.51 373.68 640.883 354.442C617.253 335.203 605.292 308.387 605 273.991H676.763C677.057 293.229 682.602 306.638 693.391 314.216C704.482 321.795 721.398 325.584 744.152 325.584C779.454 325.584 797.101 313.634 797.101 289.732C797.101 279.238 793.163 271.513 785.286 266.558C777.704 261.312 762.969 256.648 741.089 252.567L715.709 247.758C646.28 236.098 611.564 203.597 611.564 150.255C611.564 121.981 622.066 99.5368 643.071 82.9221C664.367 66.3074 694.417 58 733.213 58C774.641 58 806.291 66.7446 828.171 84.2338C850.05 101.723 861.722 126.791 863.178 159.437H793.163C792.288 144.28 787.187 133.203 777.847 126.208C768.808 119.212 754.368 115.714 734.525 115.714C702.731 115.714 686.828 126.208 686.828 147.195C686.828 157.688 690.622 165.704 698.205 171.242C706.082 176.781 719.941 181.444 739.777 185.234L766.032 190.043C803.665 196.747 830.947 207.678 847.862 222.835C865.079 237.701 873.681 258.397 873.681 284.922C873.681 316.694 862.016 341.033 838.673 357.939C815.337 374.846 782.955 383.299 741.527 383.299ZM1114.84 376.303H1046.14C1042.64 369.599 1040.75 361.146 1040.45 350.944C1025.29 371.348 1001.22 381.55 968.249 381.55C943.457 381.55 923.471 375.429 908.298 363.186C893.42 350.944 885.981 334.037 885.981 312.468C885.981 270.493 915.45 247.029 974.375 242.074L1009.82 239.013C1029.37 236.972 1039.14 229.539 1039.14 216.714C1039.14 201.557 1027.62 193.978 1004.57 193.978C990.566 193.978 980.652 196.164 974.813 200.537C969.275 204.617 965.917 212.342 964.748 223.71H896.921C901.01 171.534 937.036 145.446 1005.01 145.446C1072.11 145.446 1105.65 168.619 1105.65 214.965V334.766C1105.65 353.713 1108.72 367.558 1114.84 376.303ZM988.816 335.641C1004.28 335.641 1016.53 331.706 1025.57 323.836C1034.62 315.674 1039.14 303.577 1039.14 287.545V270.931C1035.06 275.303 1027.47 278.218 1016.38 279.675L988.378 282.736C966.499 285.068 955.559 294.104 955.559 309.844C955.559 317.714 958.478 323.981 964.311 328.645C970.15 333.309 978.314 335.641 988.816 335.641ZM1278.8 276.615V150.693H1347.07V376.303H1280.56V344.385C1263.05 369.162 1239.42 381.55 1209.66 381.55C1185.75 381.55 1166.64 374.409 1152.34 360.126C1138.34 345.551 1131.34 325.002 1131.34 298.476V150.693H1199.6V284.922C1199.6 310.573 1211.71 323.398 1235.92 323.398C1248.17 323.398 1258.39 319.318 1266.55 311.156C1274.72 302.994 1278.8 291.481 1278.8 276.615ZM1533.05 177.801V64.9957H1601.32V376.303H1534.8V347.009C1519.63 370.036 1497.03 381.55 1466.98 381.55C1436.64 381.55 1412.72 370.911 1395.21 349.632C1377.41 328.353 1368.52 299.642 1368.52 263.498C1368.52 227.353 1377.41 198.642 1395.21 177.364C1412.72 156.085 1436.64 145.446 1466.98 145.446C1495.56 145.446 1517.59 156.231 1533.05 177.801ZM1485.79 326.896C1518.18 326.896 1534.37 305.764 1534.37 263.498C1534.37 221.232 1518.18 200.1 1485.79 200.1C1470.62 200.1 1458.81 205.784 1450.35 217.151C1441.89 228.228 1437.66 244.26 1437.66 265.247C1437.66 306.346 1453.71 326.896 1485.79 326.896ZM1855.38 270.056V283.61H1688.22C1690.55 299.059 1696.24 310.864 1705.28 319.026C1714.33 327.188 1725.85 331.268 1739.85 331.268C1762.03 331.268 1777.2 322.816 1785.36 305.909H1850.13C1844 329.228 1831.02 347.738 1811.18 361.437C1791.34 374.846 1767.57 381.55 1739.85 381.55C1704.84 381.55 1676.55 370.765 1654.96 349.195C1633.37 327.625 1622.58 299.059 1622.58 263.498C1622.58 227.645 1633.23 199.08 1654.52 177.801C1675.53 156.231 1703.68 145.446 1738.98 145.446C1773.98 145.446 1802.28 156.668 1823.87 179.113C1844.87 201.848 1855.38 232.163 1855.38 270.056ZM1738.1 195.727C1710.1 195.727 1693.62 210.593 1688.65 240.325H1788.43C1786.09 226.333 1780.55 215.403 1771.8 207.532C1763.04 199.662 1751.82 195.727 1738.1 195.727ZM2047.04 201.848L2092.11 64.9957H2168.25L2059.29 376.303H1971.77L1859.31 64.9957H1938.51L1984.02 201.848C1998.32 246.446 2008.97 282.881 2015.97 311.156C2026.18 271.222 2036.53 234.786 2047.04 201.848ZM2361.66 376.303H2292.96C2289.46 369.599 2287.56 361.146 2287.27 350.944C2272.1 371.348 2248.03 381.55 2215.07 381.55C2190.27 381.55 2170.29 375.429 2155.12 363.186C2140.24 350.944 2132.8 334.037 2132.8 312.468C2132.8 270.493 2162.26 247.029 2221.19 242.074L2256.64 239.013C2276.19 236.972 2285.96 229.539 2285.96 216.714C2285.96 201.557 2274.44 193.978 2251.39 193.978C2237.38 193.978 2227.46 196.164 2221.63 200.537C2216.09 204.617 2212.73 212.342 2211.57 223.71H2143.74C2147.82 171.534 2183.85 145.446 2251.82 145.446C2318.92 145.446 2352.47 168.619 2352.47 214.965V334.766C2352.47 353.713 2355.53 367.558 2361.66 376.303ZM2235.63 335.641C2251.09 335.641 2263.35 331.706 2272.39 323.836C2281.44 315.674 2285.96 303.577 2285.96 287.545V270.931C2281.88 275.303 2274.29 278.218 2263.2 279.675L2235.2 282.736C2213.32 285.068 2202.38 294.104 2202.38 309.844C2202.38 317.714 2205.3 323.981 2211.13 328.645C2216.96 333.309 2225.13 335.641 2235.63 335.641ZM2514.64 145.446C2544.98 145.446 2569.05 156.085 2586.84 177.364C2604.35 198.642 2613.1 227.353 2613.1 263.498C2613.1 299.642 2604.35 328.353 2586.84 349.632C2569.05 370.911 2544.98 381.55 2514.64 381.55C2485.76 381.55 2463.59 370.619 2448.13 348.758V462H2379.86V150.693H2446.38V180.861C2461.84 157.251 2484.59 145.446 2514.64 145.446ZM2495.82 326.896C2511 326.896 2522.81 321.358 2531.27 310.281C2539.73 298.913 2543.96 282.736 2543.96 261.749C2543.96 220.649 2527.91 200.1 2495.82 200.1C2463.44 200.1 2447.25 221.232 2447.25 263.498C2447.25 305.764 2463.44 326.896 2495.82 326.896ZM2829.96 349.195C2808.37 370.765 2779.63 381.55 2743.75 381.55C2707.87 381.55 2679.13 370.765 2657.54 349.195C2635.96 327.625 2625.16 299.059 2625.16 263.498C2625.16 227.645 2635.96 198.933 2657.54 177.364C2678.84 156.085 2707.57 145.446 2743.75 145.446C2779.93 145.446 2808.66 156.085 2829.96 177.364C2851.25 198.642 2861.9 227.353 2861.9 263.498C2861.9 299.351 2851.25 327.916 2829.96 349.195ZM2743.75 326.896C2759.5 326.896 2771.61 321.504 2780.07 310.719C2788.53 299.933 2792.76 284.193 2792.76 263.498C2792.76 242.803 2788.53 227.062 2780.07 216.277C2771.61 205.492 2759.5 200.1 2743.75 200.1C2727.7 200.1 2715.45 205.492 2706.99 216.277C2698.53 227.062 2694.3 242.803 2694.3 263.498C2694.3 284.193 2698.53 299.933 2706.99 310.719C2715.45 321.504 2727.7 326.896 2743.75 326.896ZM3014.12 147.195C3015.29 147.195 3020.25 147.487 3029 148.069V210.156H3011.5C2971.53 210.156 2951.55 230.56 2951.55 271.368V376.303H2883.28V150.693H2949.8V192.667C2960.3 162.352 2981.74 147.195 3014.12 147.195Z" fill="white"/>
</svg>
